<?xml version="1.0" encoding="UTF-8" standalone="no"?>
<!DOCTYPE svg PUBLIC "-//W3C//DTD SVG 1.1//EN" "http://www.w3.org/Graphics/SVG/1.1/DTD/svg11.dtd">
<svg version="1.1" xmlns="http://www.w3.org/2000/svg" xmlns:xlink="http://www.w3.org/1999/xlink" preserveAspectRatio="xMidYMid meet" viewBox="0 0 640 640" width="640" height="640"><defs><path d="M320 12.8C150.34 12.8 12.8 150.34 12.8 320C12.8 489.66 150.34 627.2 320 627.2C489.66 627.2 627.2 489.66 627.2 320C627.2 150.34 489.66 12.8 320 12.8Z" id="c4K0N7hJZv"></path><clipPath id="clipc1bjdC4Ltc"><use xlink:href="#c4K0N7hJZv" opacity="1"></use></clipPath><path d="M163.2 320C163.2 406.6 233.4 476.8 320 476.8C406.6 476.8 476.8 406.6 476.8 320C476.8 233.4 406.6 163.2 320 163.2C233.4 163.2 163.2 233.4 163.2 320ZM371.25 441.35C367.27 443.03 363.22 444.52 359.12 445.79C359.12 443.44 359.12 424.64 359.12 422.29C359.12 409.94 354.89 400.85 346.41 395.03C351.72 394.52 356.6 393.81 361.04 392.89C365.48 391.97 370.17 390.64 375.12 388.91C380.07 387.17 384.52 385.1 388.44 382.7C392.37 380.3 396.15 377.19 399.78 373.36C403.4 369.54 406.44 365.2 408.89 360.35C411.33 355.5 413.28 349.68 414.7 342.89C416.13 336.11 416.85 328.63 416.85 320.46C416.85 304.64 411.69 291.16 401.38 280.04C406.08 267.79 405.57 254.46 399.85 240.07C399.47 240.02 396.41 239.66 396.02 239.61C393.37 239.31 388.6 240.43 381.71 242.98C374.82 245.54 367.08 249.72 358.51 255.54C346.36 252.17 333.75 250.49 320.68 250.49C307.52 250.49 294.96 252.17 283.01 255.54C277.61 251.86 272.47 248.83 267.63 246.43C262.78 244.03 258.9 242.4 255.99 241.53C253.08 240.66 250.37 240.12 247.87 239.92C245.37 239.71 243.76 239.66 243.05 239.76C242.34 239.86 241.82 239.97 241.52 240.07C235.8 254.57 235.29 267.89 239.99 280.04C229.68 291.16 224.52 304.64 224.52 320.46C224.52 328.63 225.24 336.11 226.67 342.89C228.1 349.68 230.04 355.5 232.49 360.35C234.93 365.2 237.97 369.54 241.6 373.36C245.22 377.19 249 380.3 252.93 382.7C256.86 385.11 261.3 387.17 266.25 388.91C271.2 390.64 275.89 391.97 280.34 392.89C284.78 393.81 289.65 394.52 294.96 395.03C286.59 400.75 282.4 409.84 282.4 422.29C282.4 424.68 282.4 443.85 282.4 446.25C277.78 444.87 273.22 443.24 268.75 441.35C253.07 434.72 238.98 425.22 226.88 413.12C214.78 401.01 205.28 386.93 198.65 371.25C191.79 355.03 188.31 337.79 188.31 320C188.31 302.21 191.79 284.97 198.65 268.75C205.28 253.07 214.78 238.99 226.88 226.88C238.99 214.78 253.07 205.28 268.75 198.65C284.97 191.79 302.21 188.31 320 188.31C337.79 188.31 355.03 191.79 371.25 198.65C386.93 205.28 401.01 214.78 413.12 226.88C425.22 238.99 434.72 253.07 441.35 268.75C448.21 284.97 451.69 302.21 451.69 320C451.69 337.79 448.21 355.03 441.35 371.25C434.71 386.93 425.22 401.01 413.12 413.12C413.12 413.12 413.12 413.12 413.12 413.12C395.66 427.52 381.7 436.93 371.25 441.35Z" id="aP5Smxp3H"></path></defs><g><g><g><use xlink:href="#c4K0N7hJZv" opacity="1" fill="#000000" fill-opacity="1"></use><g clip-path="url(#clipc1bjdC4Ltc)"><use xlink:href="#c4K0N7hJZv" opacity="1" fill-opacity="0" stroke="#fbf7f7" stroke-width="4" stroke-opacity="1"></use></g></g><g><use xlink:href="#aP5Smxp3H" opacity="1" fill="#ffffff" fill-opacity="1"></use><g><use xlink:href="#aP5Smxp3H" opacity="1" fill-opacity="0" stroke="#000000" stroke-width="1" stroke-opacity="0"></use></g></g></g></g></svg>